<?xml version="1.0" encoding="UTF-8" standalone="no"?>
<svg
   width="600"
   height="475"
   viewBox="0 0 599.98895 475.00987"
   version="1.1"
   id="svg2063"
   sodipodi:docname="spamtagger-debs.svg"
   inkscape:version="1.4.3 (0d15f75042, 2025-12-25)"
   xml:space="preserve"
   inkscape:export-filename="spamtagger-debs.png"
   inkscape:export-xdpi="96"
   inkscape:export-ydpi="96"
   xmlns:inkscape="http://www.inkscape.org/namespaces/inkscape"
   xmlns:sodipodi="http://sodipodi.sourceforge.net/DTD/sodipodi-0.dtd"
   xmlns="http://www.w3.org/2000/svg"
   xmlns:svg="http://www.w3.org/2000/svg"><defs
     id="defs2067"><style
       id="style1">
      .uuid-030848f5-6a59-4dfe-b94a-06d94b53e82e {
        fill: none;
        stroke: #231f20;
        stroke-linecap: round;
        stroke-linejoin: round;
        stroke-width: 3px;
      }

      .uuid-01330943-5f46-480e-ab3b-8acb03925e92 {
        stroke: #fff;
        stroke-width: 1.78px;
      }

      .uuid-01330943-5f46-480e-ab3b-8acb03925e92, .uuid-4d00aa03-7b7e-460d-ab26-39a477f1ba79 {
        fill: #fff;
      }

      .uuid-a9cbd4ba-557b-4448-bbc5-b6f95d68f594 {
        fill: #9d9fa2;
      }

      .uuid-a9cbd4ba-557b-4448-bbc5-b6f95d68f594, .uuid-88106d0d-ae4d-4cbc-9eea-87533fee0f9c, .uuid-d60d1708-c8d2-4f79-a67c-54b99b1d5ec4, .uuid-bfd944e7-afab-4e90-9ebf-40cf55508c9d, .uuid-4d00aa03-7b7e-460d-ab26-39a477f1ba79, .uuid-7fafd627-2b0a-4102-86c8-3247551a867e, .uuid-c2db7e42-d2c8-41d9-b8ec-841fec647e21, .uuid-05918384-ae20-400a-888f-895911eec38b, .uuid-003f92ab-0f2e-4ce5-9cdb-6d8bad14b21f, .uuid-4582ce87-30f9-4332-b524-b103d34bf1da {
        stroke-width: 0px;
      }

      .uuid-88106d0d-ae4d-4cbc-9eea-87533fee0f9c {
        fill: #f26522;
      }

      .uuid-d60d1708-c8d2-4f79-a67c-54b99b1d5ec4 {
        fill: #3b3b3c;
      }

      .uuid-bfd944e7-afab-4e90-9ebf-40cf55508c9d {
        fill: #505153;
      }

      .uuid-7fafd627-2b0a-4102-86c8-3247551a867e {
        fill: #939598;
      }

      .uuid-c2db7e42-d2c8-41d9-b8ec-841fec647e21 {
        fill: #a9abae;
      }

      .uuid-05918384-ae20-400a-888f-895911eec38b {
        fill: #231f20;
      }

      .uuid-003f92ab-0f2e-4ce5-9cdb-6d8bad14b21f {
        fill: #bcbec0;
      }

      .uuid-4582ce87-30f9-4332-b524-b103d34bf1da {
        fill: #5f6062;
      }
    </style></defs><sodipodi:namedview
     id="namedview2065"
     pagecolor="#ffffff"
     bordercolor="#000000"
     borderopacity="0.25"
     inkscape:showpageshadow="2"
     inkscape:pageopacity="0.0"
     inkscape:pagecheckerboard="0"
     inkscape:deskcolor="#d1d1d1"
     showgrid="false"
     inkscape:zoom="0.87807969"
     inkscape:cx="236.31113"
     inkscape:cy="208.97875"
     inkscape:window-width="1706"
     inkscape:window-height="1030"
     inkscape:window-x="0"
     inkscape:window-y="0"
     inkscape:window-maximized="0"
     inkscape:current-layer="svg2063" /><g
     id="g1"
     transform="matrix(1.0000208,0,0,1.0000208,2.9882785,2.000022)"><g
       id="group-R5"
       transform="matrix(2.5343291,0.68137321,-0.68137321,2.5343291,-1325.184,-1642.5371)"><path
         id="path45"
         d="m 5479.78,4019.14 c 52.09,-8.64 104.2,-17.19 156.3,-25.74 -79.14,-176.25 -170.52,-350.48 -239.67,-531.11 -17.58,17.37 -29.74,41.41 -40.81,62.41 -33.77,64.44 -67.44,128.85 -103.22,192.21 -74.11,131.33 -150.87,266.67 -245.8,384.46 l 0.98,1.56 c 1.95,-0.44 3.92,-0.78 5.87,-1.23 154.24,-32.38 310.89,-56.66 466.35,-82.56"
         style="fill:#ffffff;fill-opacity:1;fill-rule:nonzero;stroke:none"
         transform="matrix(0.13333333,0,0,-0.13333333,0,1066.6667)" /><path
         id="path46"
         d="m 5562.47,3655.62 c -32.02,-34.12 -54.66,-79.72 -73.5,-122.12 -2.02,-4.62 4.93,-7.86 7.23,-3.39 21.6,42.53 49.61,79.89 74.3,120.36 2.98,4.86 -4.54,8.9 -8.03,5.15 z m -148.74,-202.93 c 95.37,169.77 168.81,355.24 248.5,532.31 0.65,1.41 0.88,2.69 1.1,3.97 20.53,-3.36 40.95,-6.71 61.38,-10.06 49.63,-8.22 122.68,-35.22 172.46,-14.54 44.98,18.78 62.06,86.15 80.05,125.96 13.57,30.22 26.39,60.78 38.64,91.53 0.98,-0.17 1.95,-0.44 2.94,-0.61 193.31,-39.99 386.19,-71.88 576.77,-124.69 8.2,-23.45 8.43,-47.24 -13.97,-69.84 -20.54,-20.69 -53.98,-34.36 -78.68,-49.15 -60.62,-36.36 -121.75,-71.62 -183.54,-105.94 -245.25,-136.23 -499.59,-256.46 -760.39,-360.14 -36.41,-14.47 -80.71,-38.65 -120.91,-31.66 -9.65,1.68 -18.27,5.2 -25.97,9.99 0.57,0.92 1.05,1.95 1.62,2.87 z m 131.49,111.84 c -3.79,-5.44 3.27,-11.54 7.97,-6.67 16.03,16.91 30.87,35.14 46.22,52.77 13.72,15.88 29.05,31.08 40.17,48.94 5.19,8.24 -7.3,14.06 -13.14,8.48 -15.77,-14.82 -28.04,-34 -41.27,-51.19 -13.47,-17.35 -27.29,-34.34 -39.95,-52.33"
         style="fill:#ffffff;fill-opacity:1;fill-rule:nonzero;stroke:none"
         transform="matrix(0.13333333,0,0,-0.13333333,0,1066.6667)" /><path
         id="path47"
         d="m 6429.94,4182.27 c 4.93,-6.13 16.24,-1.19 12.86,6.8 -8.14,19.18 -21.98,36.5 -34.42,53.08 -12.51,16.79 -25.78,33.31 -40.54,48.25 -4.57,4.65 -12.43,-2.61 -8.46,-7.76 12.5,-16.28 25.38,-32.12 37.08,-48.87 11.61,-16.74 20.94,-35.51 33.48,-51.5 z m -77.18,305.83 c 74.37,-122.84 145.88,-247.53 213.48,-374.27 3.76,-6.95 7.91,-14.06 11.93,-21.26 -180.71,49.37 -369.11,93.07 -556.29,104.08 13.97,35.43 27.19,71.2 39.92,107.05 12.54,35.37 24.72,71.01 36.51,106.72 35.16,107.16 66.13,215.87 89.68,326.26 21.12,-14.53 35.52,-42.1 48.24,-61.77 39.83,-61.63 78.51,-124.07 116.53,-186.81 z m 105.42,-246.69 c 4.1,-3.86 8.96,1.9 6.64,6.05 -10.36,19.26 -25.4,36.09 -38.86,53.24 -13.52,17.38 -26.93,34.83 -41.17,51.62 -3.96,4.64 -11.55,-0.43 -7.98,-5.62 13.22,-19.15 27.47,-37.56 41.5,-56.14 12.61,-16.8 24.5,-34.8 39.87,-49.15"
         style="fill:#ffffff;fill-opacity:1;fill-rule:nonzero;stroke:none"
         transform="matrix(0.13333333,0,0,-0.13333333,0,1066.6667)" /><path
         id="path48"
         d="m 5016.97,4119.16 c 64.02,109.65 196.74,173.68 301.88,236.1 118.29,70.28 239.54,135.49 363.34,195.48 120,58.01 242.29,111.05 366.65,159.07 31.12,12.05 83.87,42.27 118.27,35.78 -22.93,-111.52 -49.54,-222 -84.39,-330.23 -8.48,-26.03 -17.34,-51.9 -26.69,-77.67 -22.71,-62.34 -48.64,-123.4 -75.61,-183.98 -14.53,-32.79 -29.44,-65.42 -44.25,-98.07 -20.23,-44.59 -38.57,-79.47 -95.74,-73.19 -135.47,14.82 -270.86,46.97 -405.25,69.72 -139.04,23.45 -278.44,48.89 -418.21,66.99 z m 68.65,43.38 c -5.6,-2.98 -0.57,-12.58 5.19,-9.83 37.44,18.06 81.26,34.8 114.4,60.2 3.75,2.9 0.68,8.61 -3.82,7.26 -40.06,-12.12 -78.93,-37.74 -115.77,-57.63 z m 196.38,48.4 c -40.8,2.32 -82.54,-18.85 -112.58,-45.09 -4.91,-4.33 0.73,-12.72 5.94,-8.45 32.32,25.95 66.42,34.14 106.23,41.22 6.38,1.13 7.95,11.92 0.41,12.32"
         style="fill:#ffffff;fill-opacity:1;fill-rule:nonzero;stroke:none"
         transform="matrix(0.13333333,0,0,-0.13333333,0,1066.6667)" /><path
         id="path63"
         d="m 6367.84,4290.4 c 14.76,-14.94 28.03,-31.46 40.54,-48.25 12.44,-16.58 26.28,-33.9 34.42,-53.08 3.38,-7.99 -7.93,-12.93 -12.86,-6.8 -12.54,15.99 -21.87,34.76 -33.48,51.5 -11.7,16.75 -24.58,32.59 -37.08,48.87 -3.97,5.15 3.89,12.41 8.46,7.76"
         style="fill:#171717;fill-opacity:1;fill-rule:nonzero;stroke:none"
         transform="matrix(0.13333333,0,0,-0.13333333,0,1066.6667)" /><path
         id="path65"
         d="m 6384.79,4352.32 c 14.24,-16.79 27.65,-34.24 41.17,-51.62 13.46,-17.15 28.5,-33.98 38.86,-53.24 2.32,-4.15 -2.54,-9.91 -6.64,-6.05 -15.37,14.35 -27.26,32.35 -39.87,49.15 -14.03,18.58 -28.28,36.99 -41.5,56.14 -3.57,5.19 4.02,10.26 7.98,5.62"
         style="fill:#171717;fill-opacity:1;fill-rule:nonzero;stroke:none"
         transform="matrix(0.13333333,0,0,-0.13333333,0,1066.6667)" /><path
         id="path66"
         d="m 5585.17,3616.86 c 13.23,17.19 25.5,36.37 41.27,51.19 5.84,5.58 18.33,-0.24 13.14,-8.48 -11.12,-17.86 -26.45,-33.06 -40.17,-48.94 -15.35,-17.63 -30.19,-35.86 -46.22,-52.77 -4.7,-4.87 -11.76,1.23 -7.97,6.67 12.66,17.99 26.48,34.98 39.95,52.33"
         style="fill:#171717;fill-opacity:1;fill-rule:nonzero;stroke:none"
         transform="matrix(0.13333333,0,0,-0.13333333,0,1066.6667)" /><path
         id="path67"
         d="m 5570.5,3650.47 c -24.69,-40.47 -52.7,-77.83 -74.3,-120.36 -2.3,-4.47 -9.25,-1.23 -7.23,3.39 18.84,42.4 41.48,88 73.5,122.12 3.49,3.75 11.01,-0.29 8.03,-5.15"
         style="fill:#171717;fill-opacity:1;fill-rule:nonzero;stroke:none"
         transform="matrix(0.13333333,0,0,-0.13333333,0,1066.6667)" /><path
         id="path68"
         d="m 5016.97,4119.16 c 139.77,-18.1 279.17,-43.54 418.21,-66.99 134.39,-22.75 269.78,-54.9 405.25,-69.72 57.17,-6.28 75.51,28.6 95.74,73.19 14.81,32.65 29.72,65.28 44.25,98.07 26.97,60.58 52.9,121.64 75.61,183.98 9.35,25.77 18.21,51.64 26.69,77.67 l 15.59,-4.94 c -11.79,-35.71 -23.97,-71.35 -36.51,-106.72 -12.73,-35.85 -25.95,-71.62 -39.92,-107.05 l -3.08,-15.4 c -0.99,0.17 -1.96,0.44 -2.94,0.61 -12.25,-30.75 -25.07,-61.31 -38.64,-91.53 -17.99,-39.81 -35.07,-107.18 -80.05,-125.96 -49.78,-20.68 -122.83,6.32 -172.46,14.54 -20.43,3.35 -40.85,6.7 -61.38,10.06 -0.22,-1.28 -0.45,-2.56 -1.1,-3.97 -79.69,-177.07 -153.13,-362.54 -248.5,-532.31 l -17.32,9.6 c 69.15,180.63 160.53,354.86 239.67,531.11 -52.1,8.55 -104.21,17.1 -156.3,25.74 -155.46,25.9 -312.11,50.18 -466.35,82.56 l 3.54,17.46"
         style="fill:#171717;fill-opacity:1;fill-rule:nonzero;stroke:none"
         transform="matrix(0.13333333,0,0,-0.13333333,0,1066.6667)" /><path
         id="path70"
         d="m 5281.59,4198.62 c -39.81,-7.08 -73.91,-15.27 -106.23,-41.22 -5.21,-4.27 -10.85,4.12 -5.94,8.45 30.04,26.24 71.78,47.41 112.58,45.09 7.54,-0.4 5.97,-11.19 -0.41,-12.32"
         style="fill:#171717;fill-opacity:1;fill-rule:nonzero;stroke:none"
         transform="matrix(0.13333333,0,0,-0.13333333,0,1066.6667)" /><path
         id="path74"
         d="m 5085.62,4162.54 c 36.84,19.89 75.71,45.51 115.77,57.63 4.5,1.35 7.57,-4.36 3.82,-7.26 -33.14,-25.4 -76.96,-42.14 -114.4,-60.2 -5.76,-2.75 -10.79,6.85 -5.19,9.83"
         style="fill:#171717;fill-opacity:1;fill-rule:nonzero;stroke:none"
         transform="matrix(0.13333333,0,0,-0.13333333,0,1066.6667)" /><path
         id="path85"
         d="m 6573.79,4188.84 c 26.73,-48.89 79.54,-117.04 71.14,-176.48 -8.42,-59.54 -80.29,-87.65 -125.36,-114.53 -68.53,-40.97 -137.74,-80.61 -207.76,-119.09 -138.89,-76.15 -280.42,-147.67 -424.5,-213.37 -72.63,-33.05 -145.84,-64.79 -219.74,-95.19 -64.07,-26.42 -136.38,-67.54 -206.58,-71.99 -56.54,-3.57 -96.43,29.14 -124.29,75.6 -24.85,41.56 -345.75,593.15 -362.82,623.42 -4.97,8.78 -0.87,17.2 5.7,20.53 l 0.27,0.97 c 24.74,68.78 78.11,117.15 136.77,158.01 72.33,50.56 149.28,95.66 225.48,139.86 148.23,86.1 300.91,164.51 457.33,234.67 74.62,33.42 150.05,65.07 226.26,94.76 51.27,19.92 119.58,60.22 174.49,32.2 54.44,-27.83 85.84,-102.41 116.86,-151.65 7.06,-11.37 251.51,-428.18 256.75,-437.72 z M 5223.44,3685.3 c -574.8487,1171.2183 -574.8487,1171.2183 0,0 z m 188.67,-235.48 c 7.7,-4.79 16.32,-8.31 25.97,-9.99 40.2,-6.99 84.5,17.19 120.91,31.66 260.8,103.68 515.14,223.91 760.39,360.14 61.79,34.32 122.92,69.58 183.54,105.94 24.7,14.79 58.14,28.46 78.68,49.15 22.4,22.6 22.17,46.39 13.97,69.84 -190.58,52.81 -383.46,84.7 -576.77,124.69 l 3.08,15.4 c 187.18,-11.01 375.58,-54.71 556.29,-104.08 -4.02,7.2 -8.17,14.31 -11.93,21.26 -67.6,126.74 -139.11,251.43 -213.48,374.27 -38.02,62.74 -76.7,125.18 -116.53,186.81 -12.72,19.67 -27.12,47.24 -48.24,61.77 -23.55,-110.39 -54.52,-219.1 -89.68,-326.26 l -15.59,4.94 c 34.85,108.23 61.46,218.71 84.39,330.23 -34.4,6.49 -87.15,-23.73 -118.27,-35.78 -124.36,-48.02 -246.65,-101.06 -366.65,-159.07 -123.8,-59.99 -245.05,-125.2 -363.34,-195.48 -105.14,-62.42 -237.86,-126.45 -301.88,-236.1 l -3.54,-17.46 c -1.95,0.45 -3.92,0.79 -5.87,1.23 l -0.98,-1.56 c 94.93,-117.79 171.69,-253.13 245.8,-384.46 35.78,-63.36 69.45,-127.77 103.22,-192.21 11.07,-21 23.23,-45.04 40.81,-62.41 l 17.32,-9.6 c -0.57,-0.92 -1.05,-1.95 -1.62,-2.87"
         style="fill:#171717;fill-opacity:1;fill-rule:nonzero;stroke:none"
         transform="matrix(0.13333333,0,0,-0.13333333,0,1066.6667)"
         sodipodi:nodetypes="ccccccccccccccccccccccccccccccccccccccccccccccccc" /></g></g><path
     fill="#d70751"
     d="m 311.42531,207.9803 c -4.53982,2.44394 2.08474,1.90194 8.53495,-0.28859 0.98245,-2.15416 1.7934,-4.22673 2.4673,-6.18896 -3.23815,2.84342 -7.00921,4.83611 -11.00226,6.47754 m 21.34422,-18.90319 c 0.77253,-5.18503 0.61192,-10.33121 -0.90421,-14.9499 0.96388,3.35 0.69036,6.81961 0.57762,10.3961 -5.7413,9.83712 -2.4729,-2.77365 -3.37344,-6.45629 -3.15283,16.36398 2.35033,7.60046 3.6995,11.01036 m -3.22003,-28.30022 c -3.7349,-8.52485 -4.55175,-4.78373 -3.64835,-1.26601 1.08355,0.003 4.55404,5.01213 3.64835,1.26601 M 219.94772,74.782974 c 2.66839,-0.838192 5.67742,-1.978452 5.57506,-1.181872 2.37279,-1.987702 2.69811,-2.834332 -5.57506,1.181872 m 5.57812,-1.183462 -1.53009,1.252752 1.52385,-0.981022 0.006,-0.27176"
     id="path2053"
     style="fill:#ea3002;fill-opacity:1;stroke:#000000;stroke-width:15.0003;stroke-dasharray:none;stroke-opacity:1;paint-order:stroke markers fill" /><path
     fill="#d70751"
     d="m 361.20451,148.24757 c 4.12859,7.24956 3.56829,12.10995 4.67909,19.60933 l -2.93114,4.02978 c 0.0414,7.97113 2.40098,3.82288 2.68902,10.02723 -2.7155,7.12382 -7.99969,22.02652 -10.83005,24.6146 -2.42934,1.19976 0.14803,-3.68049 0.10818,-5.04113 -4.3418,8.16213 -1.79552,9.7924 -10.66334,18.00592 l -0.65236,-0.51992 c -19.23826,25.28073 -67.03656,19.9693 -83.47078,-12.69736 0.80251,2.19667 0.0296,1.94576 -0.1028,3.06543 -10.00952,-15.99451 -9.72047,-37.44997 1.92314,-52.23117 11.04372,-15.11837 30.0616,-21.19357 45.89539,-16.80327 -9.84759,-4.61906 -25.74089,-6.67471 -39.15242,1.27257 -13.41365,7.27126 -21.59303,22.46498 -20.94991,34.00212 -4.65525,7.97138 1.02966,20.84988 -0.79776,24.70522 11.49923,31.98565 29.92939,38.78173 57.64928,43.63896 4.20308,0.4788 2.13671,1.96437 3.38541,3.3448 -8.18355,0.35058 -16.62994,-1.16196 -24.55529,-4.273 4.63641,2.47489 9.42202,4.73581 14.62209,5.76119 -7.30132,1.13988 -22.33414,-7.47746 -25.02284,-6.74544 20.67563,13.57567 60.88915,10.9718 74.28262,-5.11831 -7.7724,4.42453 -17.9055,9.53845 -28.5186,10.88684 -4.75173,0.0289 -11.90329,-1.30625 -11.38201,-2.52351 27.91352,-3.45433 50.93979,-18.15216 62.70957,-44.89089 3.0577,-6.69125 5.12414,-16.43418 6.70118,-17.37286 -0.52793,4.95249 1.34108,1.5502 1.15437,5.77618 0.80862,-10.93183 -3.98515,-2.20339 -2.14464,-17.0312 l 4.77211,2.37691 c -4.61932,-6.3245 0.60206,-19.63794 -6.02648,-29.9817 0.46521,-4.46062 4.3078,2.29984 5.95978,11.14371 -1.18469,-10.14974 -4.26901,-10.27384 -7.08551,-17.69361 2.11534,1.88601 4.59942,3.76273 6.49569,5.93024 -6.37162,-7.08835 -5.03053,-14.90059 -6.4518,-20.21079 -1.28577,0.0864 -1.36156,5.30914 -6.90615,-4.08974 -2.1117,-4.23825 0.0253,-2.81101 -0.0946,-4.06381 -1.06731,-0.0469 -4.90857,-2.13846 -9.43821,-7.62637 0.18799,-1.94635 4.50608,2.43385 5.91358,1.96877 -3.39196,-4.4699 -6.77767,-7.46434 -8.80217,-11.199372 -7.9252,-5.947876 -0.79153,1.758942 -6.18915,-1.101352 -10.60061,-10.48381 1.82458,-4.667144 -0.65282,-10.64489 10.73116,5.672276 21.37757,17.595324 25.94899,22.446634 -4.83962,-6.29916 -10.31731,-11.993394 -16.12081,-17.23764 2.27346,-0.18485 -10.43271,-12.707622 0.17969,-5.560914 -16.85686,-18.23932 -46.14626,-28.22832 -68.42803,-28.46026 3.14266,0.840802 7.10836,1.886942 6.34845,2.773294 -11.35955,-0.636282 -10.04776,-1.837522 -12.4257,-3.368744 -8.55099,0.80281 -7.40185,4.157434 -12.18845,6.359336 -16.99217,-0.12485 -19.16576,1.961382 -33.71814,3.926984 l 1.91576,2.316892 c -10.34708,1.657212 -9.69523,6.461768 -19.79526,10.325092 -0.81279,-0.148402 2.19906,-3.231884 4.96691,-5.223146 -7.93838,5.569456 -9.00466,2.552982 -16.30809,8.892728 1.3021,-2.511452 2.98166,-4.604804 4.5347,-6.970746 -6.72928,4.044244 -14.48926,12.696012 -13.23112,7.845458 -8.69954,10.97036 -25.13599,28.568636 -30.91367,45.055476 l -1.59256,-2.1896 c -1.9384,8.91349 -12.90555,30.33085 -10.09242,39.11044 l -1.21875,1.04377 c -0.31181,5.96443 0.63466,12.04352 0.94369,17.84778 -0.39136,7.8426 -3.95963,5.00557 -2.96655,5.6865 0.39269,17.66414 3.09706,31.26724 5.17515,42.50397 3.76825,2.06349 9.99126,19.04313 17.42309,31.35357 29.28902,64.67737 108.69488,100.90324 168.06461,87.8755 9.04986,-1.24182 20.33632,-7.24875 30.12192,-12.00654 -13.07419,2.67387 -13.74398,4.97254 -26.84792,6.88753 -9.9608,0.39743 -13.95196,-2.98967 -22.18213,-4.95345 l 4.30839,2.79374 c -13.1574,1.85724 -8.99563,-1.49869 -19.52622,0.35144 l 0.76764,-4.3731 c -3.74518,1.60181 -12.69922,-1.09377 -15.99725,-3.46458 l -3.85999,2.21027 c -7.77067,-3.36674 -12.49136,-6.26464 -14.00643,-9.62699 l -0.0896,2.93403 c -2.73155,-1.7244 -28.83088,-12.82736 -18.18705,-12.62354 -2.26965,-0.59928 -4.77775,-0.41667 -9.09994,-3.29658 l 0.68291,-2.80354 c -6.65575,-3.05676 -13.44002,-7.88321 -14.3249,-10.20818 3.62272,1.76188 5.37837,1.53171 7.09786,1.26203 -23.09123,-19.73346 -11.35284,4.16984 -31.51277,-15.91234 l 1.54262,-0.9674 c -2.20768,-1.22691 -4.01454,-2.84955 -6.04106,-4.31878 l -2.9405,-7.35903 c -11.60981,-4.59566 -20.59815,-34.57848 -27.33956,-50.07385 -2.44832,-6.45205 -0.49088,-15.70233 -1.73266,-27.96253 l -2.6865,0.86318 c 0.43156,-10.68471 9.71142,-47.08358 20.66889,-51.17578 1.72169,-8.85891 -1.00422,0.49226 -2.80015,-0.57182 5.04607,-17.03944 10.22226,-15.50741 16.54849,-21.4001 5.5012,-8.87925 -5.8759,5.41283 -4.0025,-0.20589 11.94687,-10.69774 5.59253,-13.08663 22.63437,-24.23737 2.45863,0.0883 -3.52967,3.95651 -4.3798,6.1779 8.54698,-11.599034 34.05976,-23.265726 54.0881,-24.229116 23.28127,-1.001092 57.80673,13.897514 71.32314,37.800256 l 1.07795,-0.2388 c 4.56564,9.92468 12.35655,20.09454 14.31245,32.14209 l -0.23937,-6.06632"
     id="path2055"
     style="fill:#ea3002;fill-opacity:1;stroke:#000000;stroke-width:15.0003;stroke-dasharray:none;stroke-opacity:1;paint-order:stroke markers fill" /><path
     fill="#d70751"
     d="m 264.7824,240.2675 1.0242,3.54037 c 5.13718,2.51739 9.83022,5.6982 15.32313,6.88227 -5.56556,-3.94404 -8.7722,-5.10172 -16.3473,-10.42266 m 6.95881,-3.97715 c -2.50987,-0.93325 -4.54991,-2.56277 -6.70596,-4.11625 2.94121,3.17941 6.67007,5.28678 10.2793,7.53043 l -3.57334,-3.41418 m 111.47667,-92.85028 0.21024,2.03841 c 3.32804,9.38675 5.17306,19.4297 5.28044,29.58059 0.0913,-10.81482 -1.83235,-21.59112 -5.49066,-31.61901 M 219.71302,72.115252 c 2.49908,-2.738404 7.27128,-4.579696 10.17021,-7.036188 -4.09135,2.587642 -8.23622,5.020356 -12.15856,7.745628 l 1.98835,-0.70944 M 141.25275,186.40587 c 4.14835,6.21973 -0.187,11.73631 3.75699,4.14731 -0.57838,-9.24776 -2.3772,-1.39542 -3.75699,-4.14731 m 8.59995,34.32948 c -0.85668,-5.14528 -1.97443,-7.91701 -2.75521,-10.75152 -1.31871,7.1235 1.37714,7.09206 2.75521,10.75152"
     id="path2057"
     style="fill:#ea3002;fill-opacity:1;stroke:#000000;stroke-width:15.0003;stroke-dasharray:none;stroke-opacity:1;paint-order:stroke markers fill" /><g
     id="g2"
     transform="matrix(-0.55243899,0,0,0.55243899,598.65851,74.473204)"><g
       id="layer1"
       inkscape:label="spray"
       transform="translate(624.7333,-59.979552)" /><g
       id="layer2"
       inkscape:label="can"
       transform="translate(624.7333,-59.979552)"><g
         id="g69"
         style="fill:#000000;fill-opacity:1"
         transform="rotate(-18.652064,-277.5146,2138.9447)"><path
           id="path64"
           style="fill:#ea3002;fill-opacity:1;stroke:#000000;stroke-width:15.1181;stroke-linecap:round;stroke-linejoin:round;stroke-dasharray:none;stroke-opacity:1"
           class="uuid-05918384-ae20-400a-888f-895911eec38b"
           d="m 285.08,799.3203 c -4.71,9.85 -17.94,18.55002 -37.21,24.57002 -19.25,6.04 -44.41,9.51 -72.72,9.51 -7.99,0 -16.24,-0.27 -24.67,-0.85 -35.47,-2.44 -67.97,-9.24 -92.46,-18.45 -12.24,-4.60002 -22.48,-9.80002 -30.06,-15.30002 -7.59,-5.5 -12.46,-11.3 -14.2,-16.92 m 271.27,-1.16 c -0.04,6.37 0.08,12.12 0.05,18.6 l -0.05,-18.6 m -271.27,1.16 c 2.31,-56.25 4.06,-120.4 4.06,-171.7 0,-109.95 -17.82,-335.03 -17.82,-335.03 0,0 30.84,18.03 54.01,23.39 23.16,5.35 50.41,8.43 79.33,8.43 5.76,0 11.59,-0.12 17.47,-0.37 33.09,-1.4 63.49,-6.86 88.67,-15.11 25.17,-8.27 56.25,-33.14 56.25,-33.14 0,0 -9.67,352.03 -10.65,540.97"
           sodipodi:nodetypes="ccsccccccccsccscccc" /><path
           class="uuid-a9cbd4ba-557b-4448-bbc5-b6f95d68f594"
           d="m 264.89,213.45292 c -3.37,-5.3 -7.19,-11.77 -11.56,-19.8 -32.49,-60.4 -112.98,-45.13 -112.72,-44.9 0.02,-0.2 -85.66,14.92 -99.43,60.64 -2.27,7.47 -4.97,13.68 -7.9,18.91 -11.51,20.44 -26.5,26.39 -33.08,27.41 -0.21,0.03 -1.18,0.45 -0.2,0.39 -1.74,3.66 -2.54,7.38 -2.26,11.13 2.39,30.13 73.19,52.22 153.49,48.6 80.26,-3.62 144.48,-33.77 145.44,-67.22 0.22,-14.16 -11.57,-26.4 -31.79,-35.17 z"
           id="path25"
           sodipodi:nodetypes="cccccccccccc"
           style="fill:#919191;fill-opacity:1;stroke:#000000;stroke-width:15.1181;stroke-linejoin:round;stroke-dasharray:none;stroke-opacity:1" /><path
           class="uuid-05918384-ae20-400a-888f-895911eec38b"
           d="m 162.84,94.782924 c -1.802,-1.940806 -4.05,-2.89 -7.01,-3.72 -2.96,-0.82 -6.49,-1.26 -10.37,-1.26 -2.05,0 -4.2,0.12 -6.41,0.38 -6.58,0.77 -12.48,2.55 -16.85,4.89 -2.19,1.18 -3.99,2.49 -5.32,3.95 -1.31,1.459996 -2.18,3.139996 -2.18,4.969996 v 0.34 0 0 c 1.21,21.48 2.35,42.26 3.41,62.42 v 0 c 0,0.18986 0.005,-0.159 0.04,0.85 0.08,1.56 0.87,2.95 2.01,4.02 1.71,1.62 4.21,2.75 7.28,3.56 3.06,0.79 6.7,1.21 10.68,1.21 1.64,0 3.33,-0.07 5.07,-0.22 6.42,-0.56 12.19,-2.1 16.48,-4.22 2.14,-1.07 3.93,-2.27 5.24,-3.66 1.72112,-1.47752 2.12709,-3.5468 2.54,-5.56 v -0.33 c -0.75,-20.5 -1.53,-41.65 -2.37,-63.539996"
           id="path46-3"
           style="fill:#000000;fill-opacity:1;stroke:none;stroke-opacity:1"
           sodipodi:nodetypes="ccscccsccssccccscccccc" /><path
           class="uuid-003f92ab-0f2e-4ce5-9cdb-6d8bad14b21f"
           d="m 268.9457,243.19482 -0.47112,0.35607 c -0.57687,0.45231 -1.7787,1.40505 -3.67278,2.80047 -13.28739,9.75834 -59.66826,40.06309 -128.54732,40.05347 -30.55523,0 -65.571644,-5.93777 -104.280061,-22.32678 -2.269048,-0.96236 -4.884221,0.10586 -5.845682,2.37703 -0.961461,2.27118 0.10576,4.8888 2.365193,5.85116 39.775639,16.85094 76.05156,23.03892 107.76055,23.03892 42.19852,0 76.28231,-10.93242 100.00155,-22.01882 11.86442,-5.5432 21.15214,-11.12489 27.59392,-15.4074 3.2209,-2.13644 5.73031,-3.9553 7.48979,-5.28336 0.87492,-0.66403 1.57679,-1.19333 2.06714,-1.5879 l 0.57687,-0.4523 0.14422,-0.11549 0.0192,-0.0192 -1.51911,-2.02095 1.46142,2.06907 0.0673,-0.0481 -1.51911,-2.02095 1.46142,2.06907 c 2.00945,-1.42429 2.49018,-4.20551 1.07683,-6.22647 -1.42296,-2.01134 -4.20158,-2.49252 -6.22065,-1.06822"
           id="path51"
           style="fill:#000000;fill-opacity:1;stroke:#000000;stroke-width:7.55906;stroke-dasharray:none;stroke-opacity:1" /><path
           class="uuid-4d00aa03-7b7e-460d-ab26-39a477f1ba79"
           d="m 81.309895,196.04312 v 0 c -0.66,-0.33 -1.34,-0.49 -2.08,-0.49 -0.79,0 -1.54,0.19 -2.23,0.57 l -0.25,0.14 c -0.79,0.5 -4.28,2.75 -7.9,7.03 -3.59,4.26 -7.3,10.68 -7.84,19.08 -0.16,2.56 1.78,4.76 4.33,4.93 2.56,0.16 4.76,-1.78 4.93,-4.33 0.4,-6.18 3.19,-10.84 6.01,-14.09 1.4,-1.61 2.8,-2.84 3.81,-3.63 0.51,-0.4 0.91,-0.69 1.18,-0.87 l 0.28,-0.18 0.03,-0.02 -1.46,-2.43 1.42,2.46 0.04,-0.02 -1.46,-2.43 1.42,2.46 -2.15,-3.72 2.06,3.77 0.09,-0.05 -2.15,-3.72 2.06,3.77 -2.22,-4.06 v 4.63 q 1.11,-0.28 2.22,-0.57 l -2.22,-4.06 v 4.63 -4.64 l -2.07,4.15 v 0 c 2.29,1.14 5.08,0.22 6.23,-2.07 1.14,-2.29 0.22,-5.08 -2.07,-6.23"
           id="path53"
           style="fill:#000000;fill-opacity:1;stroke:#000000;stroke-width:7.55906;stroke-linecap:round;stroke-linejoin:round;stroke-dasharray:none;stroke-opacity:1" /></g></g></g></svg>
